<svg id="图层_1" data-name="图层 1" xmlns="http://www.w3.org/2000/svg" viewBox="0 0 20 20"><defs><style>.cls-1{fill:#c575ef;}</style></defs><title>AFADeep</title><path class="cls-1" d="M3.34,14h1.6l.37-.87H7.54L7.6,14H9.23L8.38,7.92H6.52Zm4.28-2H5.75L7.18,9.13Z"/><polygon class="cls-1" points="14.84 9.08 15.11 7.92 10.74 7.92 9.58 13.99 11.01 13.99 11.42 11.94 13.84 11.94 14.11 10.78 11.69 10.78 12.1 9.08 14.84 9.08"/><path class="cls-1" d="M15.22,13.12h2.23l.06.87h1.63L18.3,7.92H16.44L13.25,14h1.6Zm1.88-4L17.54,12H15.66Z"/><path class="cls-1" d="M16.42,15c0,1-.92,1.47-1.9,1.45h-10c-1.1,0-2-.3-2-2V4.89c0-1.16,1-1.42,2-1.42h10A1.74,1.74,0,0,1,16.42,5V6.77h2.1V4.5a2.59,2.59,0,0,0-2.12-3c-.11,0-.22,0-.33,0H3a2.54,2.54,0,0,0-1.19.42,2.2,2.2,0,0,0-.25.17.39.39,0,0,0-.1.08,3.19,3.19,0,0,0-.26.26,2.74,2.74,0,0,0-.68,1.9V15.5A2.82,2.82,0,0,0,3,18.5H16.11a2.75,2.75,0,0,0,2.45-3V15H16.42Z"/></svg>