<svg id="图层_1" data-name="图层 1" xmlns="http://www.w3.org/2000/svg" viewBox="0 0 20 20"><defs><style>.cls-1{fill:#94e01b;}</style></defs><title>AutomaticRetractableD</title><path class="cls-1" d="M16.1,4.5H12a.46.46,0,0,0-.5.4c0,.3.2.4.5.4l2.5.1L11.9,8.3l.6.7,3-2.5L15.6,9c0,.3.2.4.5.4a.46.46,0,0,0,.5-.4V5a.37.37,0,0,0-.1-.3A.76.76,0,0,0,16.1,4.5ZM9,14.6l-2.5-.1,2.6-2.9L8.5,11l-3,2.5-.1-2.4c0-.3-.2-.4-.5-.4a.46.46,0,0,0-.5.4v4a.35.35,0,0,0,.4.4H9a.46.46,0,0,0,.5-.4A.47.47,0,0,0,9,14.6ZM16.3,1.5H4.7c-2.3,0-3.1.7-3.2,3.2V15.3c0,2.2.9,3.1,3.2,3.2H16.3c2.2,0,3.2-1,3.2-3.2V4.7C19.5,2.6,18.4,1.6,16.3,1.5Zm.2,15H4.5c-1.3,0-1,.3-1-1V4.5c0-1.3-.3-1,1-1h12c1.3,0,1-.3,1,1v11C17.5,16.8,17.8,16.5,16.5,16.5Z"/></svg>